<svg width="512" height="512" viewBox="0 0 512 512" fill="none" xmlns="http://www.w3.org/2000/svg">
<rect width="512" height="512" fill="#F15412"/>
<path d="M342.08 234.574L344 241.588L300.847 285.846C300.847 285.692 282.373 285.738 259.791 285.953L218.735 286.339L219.367 300.466C219.714 308.235 222.323 339.712 225.163 370.414C228.006 401.116 230.6 432.767 230.93 440.749L231.532 455.263L219.386 455.928C179.771 458.101 156.733 410.925 149.034 311.874C146.056 273.563 148.639 277.83 126.266 274.284C110.744 271.823 104.143 260.398 112.928 251.2C115.144 248.88 123.703 245.163 131.946 242.939L146.935 238.897L148.336 215.34C150.36 181.285 159.706 119.809 164.281 110.442C175.352 87.7784 202.225 65.9052 225.929 60.2604C260.775 51.9631 292.389 53.5551 310.445 64.5141C331.596 77.3531 339.732 94.3386 340.959 128.225C341.914 154.631 339.197 165.337 329.924 171.699C320.561 178.121 317.05 175.497 315.293 160.767C313.115 142.529 305.83 130.48 292.323 122.783C269.15 109.58 242.825 113.715 233.302 132.054C225.315 147.432 218.39 181.686 217.387 210.763L216.886 225.277L270.063 224.716C333.701 224.046 339.41 224.828 342.08 234.574Z" fill="white"/>
</svg>
