<svg width="21" height="21" viewBox="0 0 21 21" fill="none" xmlns="http://www.w3.org/2000/svg">
<circle cx="10.5" cy="10.5" r="10.5" fill="#F15412"/>
<path d="M10.0161 14.1558C11.7349 14.1558 12.9111 13.2051 12.9111 11.8408V11.8301C12.9111 10.7559 12.1538 10.0791 11.0151 9.97168V9.94482C11.9443 9.75146 12.6372 9.1123 12.6372 8.15088V8.14014C12.6372 6.92627 11.6006 6.09375 10.0054 6.09375C8.44238 6.09375 7.38428 6.97461 7.26611 8.31738L7.26074 8.37646H8.5498L8.55518 8.32275C8.625 7.62988 9.18896 7.19482 10.0054 7.19482C10.8325 7.19482 11.3105 7.61377 11.3105 8.32275V8.3335C11.3105 9.01025 10.7412 9.49365 9.88721 9.49365H9.00098V10.5249H9.91406C10.9077 10.5249 11.5093 10.9761 11.5093 11.7925V11.8032C11.5093 12.5229 10.9131 13.0225 10.0161 13.0225C9.1084 13.0225 8.50146 12.5552 8.42627 11.8999L8.4209 11.8408H7.09961L7.10498 11.9053C7.20703 13.2319 8.31885 14.1558 10.0161 14.1558Z" fill="white"/>
</svg>
