<svg width="178" height="96" viewBox="0 0 178 96" fill="none" xmlns="http://www.w3.org/2000/svg">
<path fill-rule="evenodd" clip-rule="evenodd" d="M94.7226 13.0857C91.8616 14.1522 89.8582 16.6717 88.5585 20.8378C87.297 24.8817 87.0933 29.0496 88.0099 32.0549C88.6085 34.0162 88.6731 33.9549 86.0234 33.9368C84.1705 33.9242 83.3379 34.0428 82.2097 34.48C80.2609 35.2352 77.5541 37.177 75.7827 39.0904L74.3238 40.6659L74.1691 39.7034C73.2309 33.8637 70.959 30.0179 67.0469 27.6471C62.2568 24.7438 54.1573 26.9803 48.9016 32.657C47.1629 34.5351 46.234 36.1067 45.4668 38.469L44.8892 40.2474L44.2419 38.97C42.6924 35.9122 39.592 33.6239 36.577 33.3128C34.8066 33.1301 31.9322 33.7389 29.7953 34.7496L28.2348 35.4876L28.0042 34.6827C27.6833 33.5642 26.9974 33.4745 19.3514 33.5514L12.9623 33.6157L13.0225 31.95C13.143 28.6132 13.975 24.682 14.9347 22.9172C16.0788 20.8127 19.2417 20.3381 22.0258 21.8533C23.6487 22.7366 24.524 24.1193 24.7857 26.2124C24.9968 27.9028 25.4186 28.2039 26.5435 27.467C27.6577 26.7369 27.9842 25.5082 27.8694 22.4778C27.722 18.5889 26.7444 16.6396 24.2032 15.1662C22.0338 13.9085 18.2354 13.7258 14.0488 14.6781C11.2008 15.3258 7.97209 17.8361 6.6419 20.437C6.09224 21.512 4.96936 28.567 4.72618 32.4754L4.55782 35.1788L2.7569 35.6426C1.76649 35.8978 0.738162 36.3245 0.471919 36.5907C-0.583574 37.6462 0.209519 38.9575 2.0745 39.2398C4.76256 39.6468 4.45225 39.1571 4.80997 43.5538C5.73503 54.921 8.50304 60.3351 13.2626 60.0858L14.722 60.0094L14.6497 58.3438C14.61 57.4277 14.2984 53.7953 13.9568 50.2719C13.6155 46.7485 13.3021 43.1361 13.2603 42.2446L13.1845 40.6233L18.1173 40.579C20.8304 40.5544 23.0501 40.549 23.0501 40.5667C23.0501 40.5844 22.7769 41.2186 22.4428 41.9761C21.2722 44.6306 20.9086 48.4746 21.5436 51.4765C22.5161 56.0726 25.8412 59.869 29.5844 60.6564C31.7933 61.1213 35.1991 61.0728 36.9273 60.5521C39.6046 59.7452 42.6896 57.1325 44.0728 54.5C44.2581 54.1477 44.6647 53.1317 44.9763 52.242L45.5434 50.6245L46.5328 52.6071C47.6352 54.8167 49.8658 57.2857 51.75 58.3822C54.0819 59.739 59.5175 60.2995 62.5886 59.4997C65.7733 58.6702 69.1476 56.272 70.9421 53.5632L71.7145 52.397L71.8718 53.1283C72.4691 55.9022 74.2657 58.2387 76.7762 59.5066C78.1353 60.1931 78.5071 60.2623 80.8462 60.2638C83.3023 60.2656 83.5083 60.2221 85.3305 59.3165C88.8435 57.5709 91.7511 54.6043 93.6692 50.8098C94.246 49.6684 94.8756 48.7344 95.068 48.7344C95.2605 48.7344 95.9805 49.6569 96.6683 50.7844C98.1725 53.2498 98.6268 53.7592 100.302 54.8585C103.886 57.2109 107.701 57.0807 110.497 54.5103C111.266 53.8023 112.24 52.4836 112.966 51.166C113.625 49.9695 114.333 48.9907 114.54 48.9907C114.819 48.9907 114.965 49.4806 115.107 50.9071C116.067 60.5388 122.406 64.5868 129.483 60.0883C130.209 59.6268 131.921 58.169 133.288 56.8488C134.655 55.5286 135.887 54.4888 136.025 54.5382C136.164 54.5877 136.953 55.4353 137.779 56.4219C139.585 58.579 141.558 59.6916 144.641 60.2908C149.385 61.2127 153.369 59.9507 157.185 56.3166C159.582 54.0336 160.677 53.2175 161.336 53.2221C162.091 53.2275 165.403 55.1786 166.137 56.0498C166.505 56.4875 166.806 57.073 166.806 57.3511C166.806 59.0021 164.576 60.7292 162.404 60.7602C161.246 60.7769 161.074 60.6943 160.129 59.6719C159.426 58.9109 158.938 58.591 158.562 58.6469C157.662 58.7809 156.985 59.9684 156.873 61.6076C156.731 63.6912 157.49 65.0608 159.38 66.1281C160.636 66.8382 161.045 66.9294 163.345 67.0132C166.399 67.1244 168.402 66.6837 170.979 65.3322C174.069 63.7127 175.787 61.1236 175.448 58.599C175.191 56.6828 174.163 55.4002 171.016 53.0714C168.043 50.8715 166.915 49.5967 166.571 48.0459C166.107 45.9536 167.374 44.4299 171.901 41.6378C173.538 40.6279 175.368 39.3185 175.967 38.7281C176.909 37.8 177.056 37.5078 177.056 36.5661C177.056 35.649 176.904 35.3254 176.092 34.5133C172.289 30.7101 161.32 34.8359 158.381 41.175C157.846 42.3312 157.71 43.0677 157.628 45.275C157.512 48.3954 157.538 48.3488 154.797 50.2035C149.748 53.6198 145.459 54.3729 142.972 52.2799C142.037 51.4934 141.04 49.67 141.366 49.3438C141.491 49.219 142.567 48.9983 143.757 48.8531C148.651 48.2565 151.655 46.8212 153.784 44.0617C155.753 41.5089 156.544 37.9068 155.73 35.1919C155.312 33.7948 153.63 32.0797 152.328 31.722C147.561 30.4123 140.566 33.3133 137.077 38.0473C135.379 40.3504 134.545 42.506 134.292 45.2417C134.179 46.4579 133.902 47.8111 133.675 48.2488C133.05 49.4552 129.551 52.5917 127.963 53.3684C126.234 54.2148 125.221 54.0357 124.34 52.7281C123.399 51.332 123.218 50.276 123.015 45.0188C122.851 40.7568 122.743 39.8438 122.282 38.8116C121.079 36.1192 117.534 35.5017 115.644 37.6552C115.243 38.1116 114.244 39.7716 113.423 41.3442C111.089 45.8193 108.112 48.6181 105.704 48.6006C103.792 48.5868 101.532 46.8453 99.6528 43.9382C98.2834 41.8193 98.3014 40.9603 99.7718 38.254C103.686 31.0501 105.506 23.8341 104.447 19.7144C103.669 16.686 102.156 14.5256 100.053 13.4399C98.7452 12.7649 96.0618 12.5863 94.7226 13.0857ZM122.102 18.0072C121.545 18.2115 120.813 18.6358 120.475 18.9502C118.795 20.5182 117.376 25.5305 117.754 28.5617C117.985 30.4059 118.669 31.1908 120.196 31.363C121.752 31.5383 123.018 30.8738 124.802 28.946C127.841 25.6624 128.912 21.9566 127.512 19.5681C126.458 17.7692 124.385 17.1714 122.102 18.0072ZM97.8025 22.1559C98.2781 23.9025 97.7251 28.1878 96.4456 32.6719C95.5764 35.719 94.9822 33.1039 95.1172 26.8251C95.1844 23.7034 95.2956 22.68 95.6367 22.0434C95.8752 21.5983 96.2171 21.1814 96.3962 21.1171C96.9356 20.9239 97.6008 21.4154 97.8025 22.1559ZM63.8207 34.5261C67.0725 36.1853 69.1527 41.9712 68.0473 46.2816C67.5153 48.3554 66.4908 50.0403 65.1273 51.0832C62.9551 52.7447 59.2374 53.6031 56.9245 52.9774C54.5065 52.3229 52.4934 49.2446 52.0148 45.4693C51.5491 41.7975 52.5285 38.804 54.8904 36.6804C57.908 33.9675 61.1788 33.1785 63.8207 34.5261ZM89.3175 37.8184C91.04 38.8688 91.8572 41.2865 91.1013 43.0959C90.3461 44.9035 87.4177 49.0224 85.9035 50.4072C84.2997 51.8742 81.7782 53.2183 80.6294 53.2185C79.7202 53.2188 78.4941 52.592 78.1515 51.9516C77.119 50.0226 78.77 45.2676 81.8499 41.3016C83.2547 39.4922 84.3855 38.5218 85.8792 37.844C87.277 37.2098 88.3069 37.2021 89.3175 37.8184ZM149.958 39.3036C150.064 39.3631 150.15 39.7198 150.15 40.0962C150.15 41.7142 145.01 45.4226 142.352 45.7222C141.242 45.8472 141.181 45.8211 141.181 45.222C141.181 44.3105 143.006 41.8966 144.554 40.7604C146.605 39.2547 148.811 38.6602 149.958 39.3036ZM37.2648 41.5366C38.9199 42.7991 40.1824 46.2411 39.8378 48.5512C39.4485 51.1598 38.258 52.7867 36.0391 53.741C34.4086 54.4426 32.0583 54.4636 30.9 53.7871C28.8772 52.6058 27.7207 47.5895 28.8734 44.9955C29.626 43.3014 30.5841 42.3177 32.3494 41.4264C34.3287 40.427 35.8549 40.4614 37.2648 41.5366ZM67.7567 62.7641C62.3398 69.7159 57.8375 73.1904 52.5188 74.5234C50.6922 74.9813 49.8858 75.0454 47.5219 74.9208C40.9955 74.5764 34.8622 71.5642 26.5709 64.6316C23.9057 62.4033 23.1713 61.9126 22.5991 61.9787C21.5543 62.0989 21.5874 62.8778 22.7413 65.3407C24.2214 68.4989 26.3188 71.5304 28.9413 74.3012C34.6731 80.3577 40.8863 83.2 48.3932 83.2C58.392 83.2 67.1345 75.9064 70.3123 64.9135C71.2463 61.6822 71.1725 60.9063 69.931 60.9063C69.3329 60.9063 68.9482 61.2348 67.7567 62.7641Z" fill="white"/>
</svg>
