<svg width="111" height="60" viewBox="0 0 111 60" fill="none" xmlns="http://www.w3.org/2000/svg">
<path fill-rule="evenodd" clip-rule="evenodd" d="M59.2016 8.17858C57.4135 8.84515 56.1614 10.4198 55.3491 13.0236C54.5606 15.551 54.4333 18.156 55.0062 20.0343C55.3803 21.2601 55.4207 21.2218 53.7646 21.2105C52.6066 21.2026 52.0862 21.2768 51.381 21.55C50.1631 22.022 48.4713 23.2357 47.3642 24.4315L46.4524 25.4162L46.3557 24.8146C45.7693 21.1648 44.3494 18.7612 41.9043 17.2794C38.9105 15.4649 33.8483 16.8627 30.5635 20.4107C29.4768 21.5844 28.8963 22.5667 28.4167 24.0432L28.0558 25.1546L27.6512 24.3563C26.6827 22.4451 24.745 21.0149 22.8606 20.8205C21.7541 20.7063 19.9576 21.0868 18.6221 21.7185L17.6467 22.1797L17.5026 21.6767C17.3021 20.9776 16.8733 20.9216 12.0946 20.9696L8.10144 21.0098L8.13907 19.9688C8.21434 17.8832 8.73437 15.4263 9.33416 14.3233C10.0493 13.0079 12.0261 12.7113 13.7662 13.6583C14.7804 14.2104 15.3275 15.0746 15.491 16.3827C15.623 17.4393 15.8866 17.6275 16.5897 17.1669C17.2861 16.7106 17.4901 15.9426 17.4184 14.0486C17.3263 11.6181 16.7153 10.3998 15.127 9.47889C13.7711 8.69284 11.3971 8.57865 8.7805 9.17379C7.00052 9.57866 4.98256 11.1476 4.15119 12.7731C3.80765 13.445 3.10585 17.8544 2.95386 20.2971L2.84864 21.9868L1.72306 22.2766C1.10406 22.4362 0.461351 22.7028 0.294949 22.8692C-0.364734 23.5289 0.130949 24.3484 1.29657 24.5249C2.9766 24.7792 2.78265 24.4732 3.00623 27.2211C3.58439 34.3257 5.3144 37.7094 8.28914 37.5536L9.20123 37.5059L9.15606 36.4649C9.13124 35.8923 8.93649 33.6221 8.723 31.4199C8.50967 29.2178 8.3138 26.9601 8.2877 26.4029L8.24029 25.3896L11.3233 25.3619C13.019 25.3465 14.4063 25.3431 14.4063 25.3542C14.4063 25.3652 14.2356 25.7616 14.0267 26.2351C13.2951 27.8941 13.0679 30.2966 13.4647 32.1728C14.0725 35.0454 16.1507 37.4181 18.4903 37.9103C19.8708 38.2008 21.9995 38.1705 23.0795 37.8451C24.7529 37.3408 26.681 35.7078 27.5455 34.0625C27.6613 33.8423 27.9155 33.2073 28.1102 32.6512L28.4646 31.6403L29.083 32.8795C29.772 34.2605 31.1661 35.8036 32.3438 36.4889C33.8012 37.3369 37.1984 37.6872 39.1179 37.1873C41.1083 36.6689 43.2173 35.17 44.3388 33.477L44.8215 32.7481L44.9199 33.2052C45.2932 34.9389 46.416 36.3992 47.9851 37.1917C48.8346 37.6207 49.067 37.664 50.5289 37.6649C52.0639 37.666 52.1927 37.6388 53.3316 37.0728C55.5272 35.9818 57.3445 34.1277 58.5432 31.7561C58.9037 31.0428 59.2972 30.459 59.4175 30.459C59.5378 30.459 59.9878 31.0356 60.4177 31.7403C61.3578 33.2811 61.6418 33.5995 62.6885 34.2866C64.929 35.7568 67.3132 35.6755 69.0604 34.0689C69.5415 33.6264 70.1501 32.8023 70.6036 31.9787C71.0155 31.231 71.4582 30.6192 71.5873 30.6192C71.7622 30.6192 71.8528 30.9254 71.9417 31.817C72.5418 37.8368 76.5034 40.3667 80.9268 37.5552C81.3807 37.2668 82.4508 36.3556 83.3051 35.5305C84.1594 34.7054 84.9291 34.0555 85.0157 34.0864C85.1022 34.1173 85.5955 34.6471 86.1119 35.2637C87.2406 36.6119 88.474 37.3073 90.4004 37.6817C93.3655 38.258 95.8554 37.4692 98.2403 35.1979C99.7386 33.771 100.423 33.2609 100.835 33.2638C101.307 33.2672 103.377 34.4866 103.835 35.0311C104.066 35.3047 104.254 35.6707 104.254 35.8444C104.254 36.8763 102.86 37.9558 101.503 37.9751C100.779 37.9855 100.671 37.934 100.081 37.295C99.6415 36.8193 99.3359 36.6194 99.1015 36.6543C98.539 36.7381 98.1156 37.4803 98.0456 38.5048C97.9567 39.807 98.4314 40.663 99.6122 41.3301C100.398 41.7739 100.653 41.8309 102.091 41.8833C104 41.9528 105.251 41.6773 106.862 40.8326C108.793 39.8205 109.867 38.2022 109.655 36.6244C109.495 35.4267 108.852 34.6252 106.885 33.1697C105.027 31.7947 104.322 30.9979 104.107 30.0287C103.817 28.721 104.609 27.7687 107.438 26.0236C108.461 25.3925 109.605 24.5741 109.979 24.2051C110.568 23.625 110.66 23.4424 110.66 22.8538C110.66 22.2806 110.565 22.0784 110.058 21.5708C107.681 19.1938 100.825 21.7725 98.9884 25.7344C98.6535 26.457 98.5689 26.9173 98.5175 28.2969C98.4448 30.2471 98.4615 30.218 96.7481 31.3772C93.5923 33.5124 90.9119 33.9831 89.3573 32.6749C88.7732 32.1834 88.15 31.0437 88.3539 30.8399C88.4319 30.7619 89.1044 30.624 89.8483 30.5332C92.9071 30.1603 94.7843 29.2633 96.1149 27.5386C97.3458 25.9431 97.8399 23.6918 97.3314 21.9949C97.0699 21.1218 96.0188 20.0498 95.205 19.8263C92.2255 19.0077 87.8535 20.8208 85.673 23.7795C84.612 25.219 84.0905 26.5663 83.9323 28.2761C83.862 29.0362 83.6885 29.882 83.5468 30.1555C83.1562 30.9095 80.9691 32.8698 79.9769 33.3553C78.896 33.8843 78.2634 33.7723 77.7126 32.955C77.1245 32.0825 77.0111 31.4225 76.8843 28.1367C76.7816 25.473 76.7142 24.9024 76.4261 24.2573C75.6745 22.5745 73.459 22.1886 72.2774 23.5345C72.0269 23.8197 71.4025 24.8572 70.8897 25.8401C69.4306 28.6371 67.5699 30.3863 66.0653 30.3754C64.8702 30.3668 63.4575 29.2783 62.283 27.4614C61.4272 26.137 61.4384 25.6002 62.3573 23.9088C64.8039 19.4063 65.9413 14.8963 65.2795 12.3215C64.793 10.4288 63.8474 9.0785 62.5332 8.39992C61.7158 7.97806 60.0386 7.86644 59.2016 8.17858ZM76.3137 11.2545C75.9653 11.3822 75.5079 11.6474 75.2971 11.8439C74.2467 12.8239 73.3597 15.9566 73.5965 17.851C73.7404 19.0037 74.1681 19.4942 75.1226 19.6019C76.0947 19.7114 76.8862 19.2961 78.0014 18.0913C79.9008 16.039 80.5701 13.7229 79.6952 12.23C79.0363 11.1058 77.7408 10.7321 76.3137 11.2545ZM61.1265 13.8475C61.4238 14.9391 61.0782 17.6174 60.2785 20.4199C59.7353 22.3244 59.3639 20.69 59.4483 16.7657C59.4902 14.8146 59.5597 14.175 59.7729 13.7772C59.922 13.499 60.1357 13.2384 60.2476 13.1982C60.5847 13.0774 61.0005 13.3846 61.1265 13.8475ZM39.8879 21.5788C41.9203 22.6158 43.2205 26.232 42.5295 28.926C42.1971 30.2221 41.5568 31.2752 40.7046 31.927C39.3469 32.9655 37.0234 33.502 35.5778 33.1109C34.0666 32.7018 32.8084 30.7779 32.5092 28.4183C32.2182 26.1234 32.8303 24.2525 34.3065 22.9253C36.1925 21.2297 38.2367 20.7366 39.8879 21.5788ZM55.8235 23.6365C56.9 24.293 57.4108 25.8041 56.9383 26.9349C56.4663 28.0647 54.6361 30.639 53.6897 31.5045C52.6873 32.4214 51.1113 33.2614 50.3934 33.2616C49.8251 33.2617 49.0588 32.87 48.8447 32.4698C48.1994 31.2641 49.2313 28.2923 51.1562 25.8135C52.0342 24.6827 52.7409 24.0762 53.6745 23.6525C54.5481 23.2562 55.1918 23.2513 55.8235 23.6365ZM93.7236 24.5648C93.7897 24.6019 93.8437 24.8249 93.8437 25.0601C93.8437 26.0714 90.631 28.3892 88.9698 28.5764C88.2765 28.6545 88.2382 28.6382 88.2382 28.2638C88.2382 27.6941 89.3787 26.1854 90.3461 25.4753C91.6281 24.5342 93.0066 24.1626 93.7236 24.5648ZM23.2905 25.9604C24.3249 26.7495 25.114 28.9007 24.8986 30.3445C24.6553 31.9749 23.9112 32.9917 22.5244 33.5881C21.5054 34.0266 20.0364 34.0398 19.3125 33.617C18.0482 32.8787 17.3255 29.7434 18.0458 28.1222C18.5162 27.0634 19.115 26.4485 20.2184 25.8915C21.4554 25.2669 22.4093 25.2884 23.2905 25.9604ZM42.3479 39.2276C38.9624 43.5724 36.1484 45.744 32.8242 46.5771C31.6827 46.8633 31.1786 46.9034 29.7012 46.8255C25.6222 46.6103 21.7889 44.7276 16.6068 40.3948C14.9411 39.0021 14.4821 38.6954 14.1244 38.7367C13.4715 38.8118 13.4921 39.2987 14.2133 40.8379C15.1384 42.8118 16.4493 44.7065 18.0883 46.4383C21.6707 50.2236 25.554 52 30.2457 52C36.495 52 41.9591 47.4415 43.9452 40.5709C44.5289 38.5514 44.4828 38.0664 43.7069 38.0664C43.333 38.0664 43.0927 38.2717 42.3479 39.2276Z" fill="#F15412"/>
</svg>
