<svg width="111" height="44" viewBox="0 0 111 44" fill="none" xmlns="http://www.w3.org/2000/svg">
<path fill-rule="evenodd" clip-rule="evenodd" d="M59.2016 0.178579C57.4135 0.845149 56.1614 2.4198 55.3491 5.02362C54.5606 7.55104 54.4333 10.156 55.0062 12.0343C55.3803 13.2601 55.4207 13.2218 53.7646 13.2105C52.6066 13.2026 52.0862 13.2768 51.381 13.55C50.1631 14.022 48.4713 15.2357 47.3642 16.4315L46.4524 17.4162L46.3557 16.8146C45.7693 13.1648 44.3494 10.7612 41.9043 9.27945C38.9105 7.46488 33.8483 8.86272 30.5635 12.4107C29.4768 13.5844 28.8963 14.5667 28.4167 16.0432L28.0558 17.1546L27.6512 16.3563C26.6827 14.4451 24.745 13.0149 22.8606 12.8205C21.7541 12.7063 19.9576 13.0868 18.6221 13.7185L17.6467 14.1797L17.5026 13.6767C17.3021 12.9776 16.8733 12.9216 12.0946 12.9696L8.10144 13.0098L8.13907 11.9688C8.21434 9.88324 8.73437 7.42628 9.33416 6.32329C10.0493 5.00793 12.0261 4.71132 13.7662 5.65832C14.7804 6.21038 15.3275 7.07458 15.491 8.38273C15.623 9.43928 15.8866 9.62747 16.5897 9.16686C17.2861 8.71057 17.4901 7.94263 17.4184 6.04862C17.3263 3.61809 16.7153 2.39978 15.127 1.47889C13.7711 0.69284 11.3971 0.578649 8.7805 1.17379C7.00052 1.57866 4.98256 3.14755 4.15119 4.77314C3.80765 5.44499 3.10585 9.85441 2.95386 12.2971L2.84864 13.9868L1.72306 14.2766C1.10406 14.4362 0.461351 14.7028 0.294949 14.8692C-0.364734 15.5289 0.130949 16.3484 1.29657 16.5249C2.9766 16.7792 2.78265 16.4732 3.00623 19.2211C3.58439 26.3257 5.3144 29.7094 8.28914 29.5536L9.20123 29.5059L9.15606 28.4649C9.13124 27.8923 8.93649 25.6221 8.723 23.4199C8.50967 21.2178 8.3138 18.9601 8.2877 18.4029L8.24029 17.3896L11.3233 17.3619C13.019 17.3465 14.4063 17.3431 14.4063 17.3542C14.4063 17.3652 14.2356 17.7616 14.0267 18.2351C13.2951 19.8941 13.0679 22.2966 13.4647 24.1728C14.0725 27.0454 16.1507 29.4181 18.4903 29.9103C19.8708 30.2008 21.9995 30.1705 23.0795 29.8451C24.7529 29.3408 26.681 27.7078 27.5455 26.0625C27.6613 25.8423 27.9155 25.2073 28.1102 24.6512L28.4646 23.6403L29.083 24.8795C29.772 26.2605 31.1661 27.8036 32.3438 28.4889C33.8012 29.3369 37.1984 29.6872 39.1179 29.1873C41.1083 28.6689 43.2173 27.17 44.3388 25.477L44.8215 24.7481L44.9199 25.2052C45.2932 26.9389 46.416 28.3992 47.9851 29.1917C48.8346 29.6207 49.067 29.664 50.5289 29.6649C52.0639 29.666 52.1927 29.6388 53.3316 29.0728C55.5272 27.9818 57.3445 26.1277 58.5432 23.7561C58.9037 23.0428 59.2972 22.459 59.4175 22.459C59.5378 22.459 59.9878 23.0356 60.4177 23.7403C61.3578 25.2811 61.6418 25.5995 62.6885 26.2866C64.929 27.7568 67.3132 27.6755 69.0604 26.0689C69.5415 25.6264 70.1501 24.8023 70.6036 23.9787C71.0155 23.231 71.4582 22.6192 71.5873 22.6192C71.7622 22.6192 71.8528 22.9254 71.9417 23.817C72.5418 29.8368 76.5034 32.3667 80.9268 29.5552C81.3807 29.2668 82.4508 28.3556 83.3051 27.5305C84.1594 26.7054 84.9291 26.0555 85.0157 26.0864C85.1022 26.1173 85.5955 26.6471 86.1119 27.2637C87.2406 28.6119 88.474 29.3073 90.4004 29.6817C93.3655 30.258 95.8554 29.4692 98.2403 27.1979C99.7386 25.771 100.423 25.2609 100.835 25.2638C101.307 25.2672 103.377 26.4866 103.835 27.0311C104.066 27.3047 104.254 27.6707 104.254 27.8444C104.254 28.8763 102.86 29.9558 101.503 29.9751C100.779 29.9855 100.671 29.934 100.081 29.295C99.6415 28.8193 99.3359 28.6194 99.1015 28.6543C98.539 28.7381 98.1156 29.4803 98.0456 30.5048C97.9567 31.807 98.4314 32.663 99.6122 33.3301C100.398 33.7739 100.653 33.8309 102.091 33.8833C104 33.9528 105.251 33.6773 106.862 32.8326C108.793 31.8205 109.867 30.2022 109.655 28.6244C109.495 27.4267 108.852 26.6252 106.885 25.1697C105.027 23.7947 104.322 22.9979 104.107 22.0287C103.817 20.721 104.609 19.7687 107.438 18.0236C108.461 17.3925 109.605 16.5741 109.979 16.2051C110.568 15.625 110.66 15.4424 110.66 14.8538C110.66 14.2806 110.565 14.0784 110.058 13.5708C107.681 11.1938 100.825 13.7725 98.9884 17.7344C98.6535 18.457 98.5689 18.9173 98.5175 20.2969C98.4448 22.2471 98.4615 22.218 96.7481 23.3772C93.5923 25.5124 90.9119 25.9831 89.3573 24.6749C88.7732 24.1834 88.15 23.0437 88.3539 22.8399C88.4319 22.7619 89.1044 22.624 89.8483 22.5332C92.9071 22.1603 94.7843 21.2633 96.1149 19.5386C97.3458 17.9431 97.8399 15.6918 97.3314 13.9949C97.0699 13.1218 96.0188 12.0498 95.205 11.8263C92.2255 11.0077 87.8535 12.8208 85.673 15.7795C84.612 17.219 84.0905 18.5663 83.9323 20.2761C83.862 21.0362 83.6885 21.882 83.5468 22.1555C83.1562 22.9095 80.9691 24.8698 79.9769 25.3553C78.896 25.8843 78.2634 25.7723 77.7126 24.955C77.1245 24.0825 77.0111 23.4225 76.8843 20.1367C76.7816 17.473 76.7142 16.9024 76.4261 16.2573C75.6745 14.5745 73.459 14.1886 72.2774 15.5345C72.0269 15.8197 71.4025 16.8572 70.8897 17.8401C69.4306 20.6371 67.5699 22.3863 66.0653 22.3754C64.8702 22.3668 63.4575 21.2783 62.283 19.4614C61.4272 18.137 61.4384 17.6002 62.3573 15.9088C64.8039 11.4063 65.9413 6.89633 65.2795 4.3215C64.793 2.42877 63.8474 1.0785 62.5332 0.399915C61.7158 -0.0219361 60.0386 -0.133565 59.2016 0.178579ZM76.3137 3.25454C75.9653 3.38218 75.5079 3.6474 75.2971 3.84391C74.2467 4.82391 73.3597 7.95656 73.5965 9.85104C73.7404 11.0037 74.1681 11.4942 75.1226 11.6019C76.0947 11.7114 76.8862 11.2961 78.0014 10.0913C79.9008 8.03904 80.5701 5.72286 79.6952 4.23005C79.0363 3.10575 77.7408 2.73211 76.3137 3.25454ZM61.1265 5.84746C61.4238 6.93909 61.0782 9.61738 60.2785 12.4199C59.7353 14.3244 59.3639 12.69 59.4483 8.76567C59.4902 6.81465 59.5597 6.17498 59.7729 5.77715C59.922 5.49896 60.1357 5.23839 60.2476 5.19819C60.5847 5.07743 61.0005 5.38461 61.1265 5.84746ZM39.8879 13.5788C41.9203 14.6158 43.2205 18.232 42.5295 20.926C42.1971 22.2221 41.5568 23.2752 40.7046 23.927C39.3469 24.9655 37.0234 25.502 35.5778 25.1109C34.0666 24.7018 32.8084 22.7779 32.5092 20.4183C32.2182 18.1234 32.8303 16.2525 34.3065 14.9253C36.1925 13.2297 38.2367 12.7366 39.8879 13.5788ZM55.8235 15.6365C56.9 16.293 57.4108 17.8041 56.9383 18.9349C56.4663 20.0647 54.6361 22.639 53.6897 23.5045C52.6873 24.4214 51.1113 25.2614 50.3934 25.2616C49.8251 25.2617 49.0588 24.87 48.8447 24.4698C48.1994 23.2641 49.2313 20.2923 51.1562 17.8135C52.0342 16.6827 52.7409 16.0762 53.6745 15.6525C54.5481 15.2562 55.1918 15.2513 55.8235 15.6365ZM93.7236 16.5648C93.7897 16.6019 93.8437 16.8249 93.8437 17.0601C93.8437 18.0714 90.631 20.3892 88.9698 20.5764C88.2765 20.6545 88.2382 20.6382 88.2382 20.2638C88.2382 19.6941 89.3787 18.1854 90.3461 17.4753C91.6281 16.5342 93.0066 16.1626 93.7236 16.5648ZM23.2905 17.9604C24.3249 18.7495 25.114 20.9007 24.8986 22.3445C24.6553 23.9749 23.9112 24.9917 22.5244 25.5881C21.5054 26.0266 20.0364 26.0398 19.3125 25.617C18.0482 24.8787 17.3255 21.7434 18.0458 20.1222C18.5162 19.0634 19.115 18.4485 20.2184 17.8915C21.4554 17.2669 22.4093 17.2884 23.2905 17.9604ZM42.3479 31.2276C38.9624 35.5724 36.1484 37.744 32.8242 38.5771C31.6827 38.8633 31.1786 38.9034 29.7012 38.8255C25.6222 38.6103 21.7889 36.7276 16.6068 32.3948C14.9411 31.0021 14.4821 30.6954 14.1244 30.7367C13.4715 30.8118 13.4921 31.2987 14.2133 32.8379C15.1384 34.8118 16.4493 36.7065 18.0883 38.4383C21.6707 42.2236 25.554 44 30.2457 44C36.495 44 41.9591 39.4415 43.9452 32.5709C44.5289 30.5514 44.4828 30.0664 43.7069 30.0664C43.333 30.0664 43.0927 30.2717 42.3479 31.2276Z" fill="#F15412"/>
</svg>
