<svg width="24" height="24" viewBox="0 0 24 24" fill="none" xmlns="http://www.w3.org/2000/svg">
<rect width="24" height="24" rx="12" fill="url(#paint0_linear_33_12057)"/>
<path d="M13.9157 9.25703C14.0336 7.04283 12.7235 6.12573 11.4788 6.00782C10.8237 5.94229 10.8761 6.30913 10.9285 6.34844C10.9285 6.34844 13.2476 6.64975 12.8414 9.00808C10.9024 8.69361 9.53982 9.87281 9.53982 11.3533C9.53982 12.3621 9.7756 12.7813 9.7756 13.8426C9.7756 15.1004 8.3999 15.965 8.3999 16.9608C8.3999 17.4587 8.87156 17.76 9.44806 17.76C12.4745 17.76 15.7238 15.1659 15.7238 11.8773C15.7238 10.3969 14.9115 9.46664 13.9158 9.25701L13.9157 9.25703Z" fill="white"/>
<defs>
<linearGradient id="paint0_linear_33_12057" x1="0" y1="0" x2="28.5954" y2="7.77851" gradientUnits="userSpaceOnUse">
<stop stop-color="#F97D23"/>
<stop offset="0.616149" stop-color="#FB4E1E"/>
<stop offset="1" stop-color="#F83600"/>
</linearGradient>
</defs>
</svg>
