<svg width="24" height="24" viewBox="0 0 24 24" fill="none" xmlns="http://www.w3.org/2000/svg">
<rect width="24" height="24" rx="12" fill="url(#paint0_linear_33_12059)"/>
<rect width="24" height="24" rx="12" fill="url(#paint1_linear_33_12059)"/>
<path fill-rule="evenodd" clip-rule="evenodd" d="M14.1624 6.62802C13.7431 6.7135 12.8453 6.98092 12.3124 7.17907C10.5986 7.81624 9.42844 8.49196 8.50274 9.37901C7.81682 10.0362 7.48468 10.5519 7.30013 11.2458C7.21756 11.5565 7.20363 11.6913 7.20042 12.211C7.19724 12.7315 7.20876 12.8592 7.28355 13.1335C7.53354 14.0499 8.12918 14.8387 8.93021 15.3142L9.26039 15.5102L8.90095 15.7768C8.70326 15.9235 8.4014 16.1286 8.23014 16.2326C8.05888 16.3366 7.88618 16.4512 7.84635 16.4872C7.58289 16.7257 7.63076 17.1376 7.94414 17.3286C8.1954 17.4819 8.45932 17.3998 9.09913 16.9697C10.517 16.0163 11.8831 14.3896 12.7464 12.6263C13.215 11.6691 13.495 10.8341 13.5945 10.0967C13.6507 9.68026 13.6852 9.58697 13.7834 9.58697C13.8315 9.58697 13.8652 9.61785 13.8763 9.67192C13.9271 9.92141 13.9329 10.1889 13.8965 10.61C13.7411 12.4111 12.9511 14.5128 11.9111 15.8922C11.7624 16.0895 11.6477 16.2626 11.6564 16.2768C11.665 16.2911 11.787 16.3792 11.9276 16.4726C12.5866 16.9108 13.3884 16.9811 14.2946 16.6802C15.1809 16.3859 15.8982 15.7548 16.3491 14.8728C16.5745 14.4318 16.7027 14.0532 16.813 13.5021C16.9235 12.95 16.9323 11.7807 16.8302 11.1932C16.5623 9.65059 15.8906 8.14525 14.9642 7.01158C14.8394 6.85875 14.7114 6.71237 14.68 6.68628C14.5699 6.59491 14.412 6.57712 14.1624 6.62802Z" fill="white"/>
<defs>
<linearGradient id="paint0_linear_33_12059" x1="0" y1="0" x2="28.5954" y2="7.77851" gradientUnits="userSpaceOnUse">
<stop stop-color="#F97D23"/>
<stop offset="0.616149" stop-color="#FB4E1E"/>
<stop offset="1" stop-color="#F83600"/>
</linearGradient>
<linearGradient id="paint1_linear_33_12059" x1="0" y1="0" x2="28.5954" y2="7.77851" gradientUnits="userSpaceOnUse">
<stop stop-color="#A8E063"/>
<stop offset="0.616149" stop-color="#66BE3E"/>
<stop offset="1" stop-color="#56AB2F"/>
</linearGradient>
</defs>
</svg>
