<svg width="24" height="24" viewBox="0 0 24 24" fill="none" xmlns="http://www.w3.org/2000/svg">
<rect width="24" height="24" rx="12" fill="url(#paint0_linear_33_12055)"/>
<path d="M10.079 16.6929H8.50191C8.40448 16.6929 8.34345 16.587 8.39377 16.5026L13.8124 7.37119C13.8349 7.33272 13.8767 7.3092 13.9206 7.3092H15.4977C15.5951 7.3092 15.6561 7.41501 15.6058 7.49944L10.1872 16.6309C10.1647 16.6693 10.124 16.6929 10.079 16.6929Z" fill="white"/>
<path d="M10.0792 16.5859H8.72265C8.65198 16.5859 8.58132 16.5892 8.51173 16.5859C8.48175 16.5849 8.4764 16.5753 8.48925 16.5517C8.51173 16.5101 8.53743 16.4695 8.56205 16.4288C8.69696 16.2023 8.8308 15.9757 8.9657 15.7491C9.18732 15.375 9.41002 15.001 9.63167 14.6258C9.91005 14.1567 10.1884 13.6875 10.4668 13.2172C10.7709 12.7042 11.076 12.1912 11.3801 11.6772C11.6788 11.1748 11.9764 10.6725 12.2752 10.1691C12.5353 9.73096 12.7955 9.29171 13.0557 8.85352C13.2463 8.53182 13.4369 8.2112 13.6274 7.88951C13.7163 7.73881 13.8073 7.58919 13.8951 7.43849C13.9026 7.4246 13.9058 7.41819 13.9208 7.41391C13.9347 7.41071 13.954 7.41391 13.9679 7.41391H14.0825H14.894C15.0921 7.41391 15.2923 7.40536 15.4904 7.41391C15.5161 7.41498 15.5215 7.42567 15.5097 7.44811C15.5022 7.46201 15.4926 7.4759 15.4851 7.48979C15.3769 7.67255 15.2688 7.85531 15.1607 8.037C14.9562 8.38113 14.7516 8.72528 14.5482 9.06941C14.2806 9.52042 14.0129 9.97251 13.7452 10.4235C13.4444 10.9301 13.1446 11.4367 12.8437 11.9422C12.5407 12.452 12.2388 12.9618 11.9358 13.4727C11.6627 13.9354 11.3897 14.395 11.1178 14.8535C10.9079 15.2083 10.697 15.5621 10.4871 15.9169C10.3704 16.1135 10.2537 16.3102 10.137 16.5069C10.1263 16.525 10.1028 16.5838 10.0792 16.5859C9.94215 16.5934 9.94108 16.8082 10.0792 16.7997C10.2055 16.7922 10.2623 16.7153 10.318 16.6212C10.3619 16.5464 10.4068 16.4716 10.4507 16.3968C10.6199 16.1114 10.7901 15.825 10.9593 15.5397C11.2077 15.1207 11.4572 14.7018 11.7056 14.2817C12.0011 13.7837 12.2966 13.2857 12.5921 12.7876C12.9015 12.2661 13.2109 11.7445 13.5204 11.223C13.8105 10.7335 14.1017 10.2429 14.3919 9.75345C14.6307 9.35054 14.8705 8.94762 15.1093 8.54468C15.2645 8.28285 15.4198 8.02207 15.575 7.76021C15.6103 7.70036 15.6457 7.64051 15.681 7.58173C15.6864 7.57211 15.6928 7.56356 15.6971 7.55394C15.787 7.39042 15.6724 7.20766 15.4904 7.20233C15.2891 7.19698 15.0868 7.20233 14.8844 7.20233H14.0632C14.0022 7.20233 13.9369 7.19591 13.8769 7.2066C13.8041 7.2205 13.7495 7.26645 13.712 7.32844C13.6821 7.3776 13.6531 7.42783 13.6242 7.477C13.4797 7.72068 13.3351 7.96436 13.1906 8.20802C12.9583 8.59919 12.7259 8.99034 12.4936 9.38259C12.2056 9.8678 11.9176 10.353 11.6296 10.8382C11.3191 11.3608 11.0096 11.8835 10.6991 12.405C10.4015 12.9073 10.1028 13.4096 9.80512 13.913C9.55029 14.3416 9.29654 14.7712 9.04173 15.1998C8.864 15.5001 8.68519 15.8004 8.50746 16.0997C8.43894 16.2151 8.36506 16.3295 8.30081 16.4481C8.21195 16.6116 8.32758 16.7965 8.51067 16.7987C8.58348 16.7997 8.65736 16.7987 8.73016 16.7987H9.57813H10.0781C10.2173 16.7997 10.2173 16.586 10.0792 16.586L10.0792 16.5859Z" fill="white"/>
<path d="M9.06086 7.3092C8.0919 7.3092 7.30493 8.09368 7.30493 9.06197C7.30493 10.0303 8.09082 10.8147 9.06086 10.8147C10.0309 10.8147 10.8168 10.0303 10.8168 9.06197C10.8168 8.09368 10.0298 7.3092 9.06086 7.3092Z" fill="white"/>
<path d="M9.06088 7.20227C8.28249 7.20655 7.57905 7.69817 7.31032 8.42706C7.04264 9.15275 7.27391 10.0035 7.8735 10.4929C8.47737 10.9878 9.34889 11.0594 10.0212 10.6543C10.6925 10.2503 11.0384 9.45412 10.8863 8.68792C10.7365 7.94408 10.109 7.34022 9.35528 7.22693C9.25784 7.21197 9.15934 7.20342 9.06084 7.20235C8.92272 7.20128 8.92272 7.41503 9.06084 7.41611C9.74073 7.41932 10.3735 7.84789 10.608 8.49021C10.8467 9.14534 10.6444 9.88708 10.108 10.3327C9.5769 10.7741 8.79744 10.8244 8.20856 10.4695C7.62182 10.1158 7.30705 9.4104 7.44409 8.73815C7.58114 8.06591 8.13146 7.54327 8.80922 7.43426C8.89273 7.42144 8.97732 7.4161 9.06084 7.4161C9.19896 7.4161 9.19896 7.20234 9.06084 7.20234L9.06088 7.20227Z" fill="white"/>
<path d="M14.939 13.1884C13.9701 13.1884 13.1831 13.9728 13.1831 14.9411C13.1831 15.9094 13.969 16.6939 14.939 16.6939C15.9091 16.6939 16.695 15.9094 16.695 14.9411C16.695 13.9728 15.9091 13.1884 14.939 13.1884Z" fill="white"/>
<path d="M14.9391 13.0815C14.1607 13.0847 13.4572 13.5774 13.1885 14.3063C12.9208 15.032 13.1521 15.8827 13.7517 16.3722C14.3555 16.867 15.2271 16.9386 15.8994 16.5336C16.5707 16.1296 16.9165 15.3334 16.7645 14.5672C16.6146 13.8223 15.9872 13.2195 15.2334 13.1051C15.136 13.0902 15.0375 13.0816 14.939 13.0816C14.8009 13.0806 14.8009 13.2943 14.939 13.2954C15.6189 13.2986 16.2517 13.7272 16.4861 14.3695C16.7249 15.0246 16.5225 15.7664 15.9861 16.212C15.4551 16.6534 14.6756 16.7036 14.0867 16.3488C13.5 15.9951 13.1852 15.2897 13.3223 14.6174C13.4593 13.9452 14.0096 13.4226 14.6874 13.3136C14.7709 13.3007 14.8555 13.2954 14.939 13.2954C15.0771 13.2943 15.0771 13.0806 14.939 13.0816L14.9391 13.0815Z" fill="white"/>
<defs>
<linearGradient id="paint0_linear_33_12055" x1="0" y1="0" x2="28.5954" y2="7.77851" gradientUnits="userSpaceOnUse">
<stop stop-color="#729EF2"/>
<stop offset="0.616149" stop-color="#9365C2"/>
<stop offset="1" stop-color="#452192"/>
</linearGradient>
</defs>
</svg>
